<svg xmlns="http://www.w3.org/2000/svg" width="32" height="32" viewBox="0 0 32 32">
  <metadata><?xpacket begin="﻿" id="W5M0MpCehiHzreSzNTczkc9d"?>
<x:xmpmeta xmlns:x="adobe:ns:meta/" x:xmptk="Adobe XMP Core 5.6-c142 79.160924, 2017/07/13-01:06:39        ">
   <rdf:RDF xmlns:rdf="http://www.w3.org/1999/02/22-rdf-syntax-ns#">
      <rdf:Description rdf:about=""/>
   </rdf:RDF>
</x:xmpmeta>
                                                                                                    
                                                                                                    
                                                                                                    
                                                                                                    
                                                                                                    
                                                                                                    
                                                                                                    
                                                                                                    
                                                                                                    
                                                                                                    
                                                                                                    
                                                                                                    
                                                                                                    
                                                                                                    
                                                                                                    
                                                                                                    
                                                                                                    
                                                                                                    
                                                                                                    
                                                                                                    
                           
<?xpacket end="w"?></metadata>
<defs>
    <style>
      .cls-1 {
        fill: #95e1d3;
        fill-rule: evenodd;
      }
    </style>
  </defs>
  <path id="BOOK_2" data-name="BOOK 2" class="cls-1" d="M32.065,195.889l-14.471,5.988a1.494,1.494,0,0,1-1.187,0L1.935,195.889A1.5,1.5,0,0,1,1,194.5v-23a1.5,1.5,0,0,1,2.073-1.386h0l0.013,0L17,175.876l13.911-5.756,0.013,0h0A1.5,1.5,0,0,1,33,171.5v23A1.5,1.5,0,0,1,32.065,195.889ZM15.5,178.5L4,173.744V193.5l11.5,4.759V178.5ZM30,173.744L18.5,178.5v19.753L30,193.5V173.744Zm-9.121,6.89,5.5-2.5h0a1.5,1.5,0,1,1,1.241,2.731h0l-5.5,2.5h0a1.48,1.48,0,0,1-.621.135A1.5,1.5,0,0,1,20.879,180.634Zm0,5.5h0l5.5-2.5h0a1.5,1.5,0,1,1,1.241,2.731l-5.5,2.5h0A1.5,1.5,0,1,1,20.879,186.134Zm0,5.5h0l5.5-2.5h0a1.5,1.5,0,1,1,1.241,2.731h0l-5.5,2.5h0a1.48,1.48,0,0,1-.621.135A1.5,1.5,0,0,1,20.879,191.634ZM7,178a1.5,1.5,0,0,1,.621.134h0l5.5,2.5h0A1.5,1.5,0,0,1,12.5,183.5a1.481,1.481,0,0,1-.621-0.135h0l-5.5-2.5h0A1.5,1.5,0,0,1,7,178Zm0,5.5a1.5,1.5,0,0,1,.621.134h0l5.5,2.5h0a1.5,1.5,0,1,1-1.241,2.731h0l-5.5-2.5h0A1.5,1.5,0,0,1,7,183.5ZM7,189a1.5,1.5,0,0,1,.621.134h0l5.5,2.5h0A1.5,1.5,0,0,1,12.5,194.5a1.481,1.481,0,0,1-.621-0.135h0l-5.5-2.5h0A1.5,1.5,0,0,1,7,189Z" transform="translate(-1 -170)"/>
</svg>
