<svg xmlns="http://www.w3.org/2000/svg" width="32" height="30.5" viewBox="0 0 32 30.5">
  <metadata><?xpacket begin="﻿" id="W5M0MpCehiHzreSzNTczkc9d"?>
<x:xmpmeta xmlns:x="adobe:ns:meta/" x:xmptk="Adobe XMP Core 5.6-c142 79.160924, 2017/07/13-01:06:39        ">
   <rdf:RDF xmlns:rdf="http://www.w3.org/1999/02/22-rdf-syntax-ns#">
      <rdf:Description rdf:about=""/>
   </rdf:RDF>
</x:xmpmeta>
                                                                                                    
                                                                                                    
                                                                                                    
                                                                                                    
                                                                                                    
                                                                                                    
                                                                                                    
                                                                                                    
                                                                                                    
                                                                                                    
                                                                                                    
                                                                                                    
                                                                                                    
                                                                                                    
                                                                                                    
                                                                                                    
                                                                                                    
                                                                                                    
                                                                                                    
                                                                                                    
                           
<?xpacket end="w"?></metadata>
<defs>
    <style>
      .cls-1 {
        fill: #95e1d3;
        fill-rule: evenodd;
      }
    </style>
  </defs>
  <path id="ALARM" class="cls-1" d="M30.74,10.5A15.719,15.719,0,0,0,22.5,2.26,5.869,5.869,0,0,1,30.74,10.5ZM30.5,17a14.435,14.435,0,0,1-3.962,9.94l2.028,2.028a1.483,1.483,0,1,1-2.1,2.1L24.29,28.887a14.457,14.457,0,0,1-16.566.01L5.561,31.06a1.5,1.5,0,1,1-2.121-2.121l2.012-2.012A14.494,14.494,0,1,1,30.5,17ZM16,5.5A11.5,11.5,0,1,0,27.5,17,11.5,11.5,0,0,0,16,5.5Zm6,13H16A1.5,1.5,0,0,1,14.5,17V9a1.5,1.5,0,0,1,3,0v6.5H22A1.5,1.5,0,0,1,22,18.5ZM1.287,10.705A5.994,5.994,0,0,1,9.706,2.287,16.056,16.056,0,0,0,1.287,10.705Z" transform="translate(0 -1)"/>
</svg>
