<svg xmlns="http://www.w3.org/2000/svg" width="31" height="28" viewBox="0 0 31 28">
  <metadata><?xpacket begin="﻿" id="W5M0MpCehiHzreSzNTczkc9d"?>
<x:xmpmeta xmlns:x="adobe:ns:meta/" x:xmptk="Adobe XMP Core 5.6-c142 79.160924, 2017/07/13-01:06:39        ">
   <rdf:RDF xmlns:rdf="http://www.w3.org/1999/02/22-rdf-syntax-ns#">
      <rdf:Description rdf:about=""/>
   </rdf:RDF>
</x:xmpmeta>
                                                                                                    
                                                                                                    
                                                                                                    
                                                                                                    
                                                                                                    
                                                                                                    
                                                                                                    
                                                                                                    
                                                                                                    
                                                                                                    
                                                                                                    
                                                                                                    
                                                                                                    
                                                                                                    
                                                                                                    
                                                                                                    
                                                                                                    
                                                                                                    
                                                                                                    
                                                                                                    
                           
<?xpacket end="w"?></metadata>
<defs>
    <style>
      .cls-1 {
        fill: #95e1d3;
        fill-rule: evenodd;
      }
    </style>
  </defs>
  <path id="COMPUTER_OK" data-name="COMPUTER / OK" class="cls-1" d="M830,24h-9.5v2.5l2,2V29h-13V28.5l2-2V24H802a1.5,1.5,0,0,1-1.5-1.5V2.5A1.5,1.5,0,0,1,802,1h28a1.5,1.5,0,0,1,1.5,1.5v20A1.5,1.5,0,0,1,830,24ZM829.5,3h-27V20h27V3ZM813,10a1.5,1.5,0,0,1,1.061.439h0L815,11.378l2.939-2.939h0a1.5,1.5,0,0,1,2.122,2.121h0l-4,4h0a1.5,1.5,0,0,1-2.122,0h0l-2-2h0A1.5,1.5,0,0,1,813,10Z" transform="translate(-800.5 -1)"/>
</svg>
