<svg xmlns="http://www.w3.org/2000/svg" width="32" height="32" viewBox="0 0 32 32">
  <metadata><?xpacket begin="﻿" id="W5M0MpCehiHzreSzNTczkc9d"?>
<x:xmpmeta xmlns:x="adobe:ns:meta/" x:xmptk="Adobe XMP Core 5.6-c142 79.160924, 2017/07/13-01:06:39        ">
   <rdf:RDF xmlns:rdf="http://www.w3.org/1999/02/22-rdf-syntax-ns#">
      <rdf:Description rdf:about=""/>
   </rdf:RDF>
</x:xmpmeta>
                                                                                                    
                                                                                                    
                                                                                                    
                                                                                                    
                                                                                                    
                                                                                                    
                                                                                                    
                                                                                                    
                                                                                                    
                                                                                                    
                                                                                                    
                                                                                                    
                                                                                                    
                                                                                                    
                                                                                                    
                                                                                                    
                                                                                                    
                                                                                                    
                                                                                                    
                                                                                                    
                           
<?xpacket end="w"?></metadata>
<defs>
    <style>
      .cls-1 {
        fill: #95e1d3;
        fill-rule: evenodd;
      }
    </style>
  </defs>
  <path id="LINE_GRAPH" data-name="LINE GRAPH" class="cls-1" d="M431.5,32h-29a1.5,1.5,0,0,1-1.5-1.5V1.5A1.5,1.5,0,0,1,402.5,0h29A1.5,1.5,0,0,1,433,1.5v29A1.5,1.5,0,0,1,431.5,32ZM430,3H404V29h26V3ZM406.215,16.238h0l4-2.5h0a1.5,1.5,0,0,1,1.625.036l0.006-.009,6.631,4.42,7.638-5.391a1.5,1.5,0,1,1,1.763,2.426h0l-8.5,6h0a1.5,1.5,0,0,1-1.739.012L410.982,16.8l-3.135,1.96A1.5,1.5,0,1,1,406.215,16.238Z" transform="translate(-401)"/>
</svg>
