<svg aria-hidden="true" style="position: absolute; width: 0; height: 0; overflow: hidden;" version="1.1"
     xmlns="http://www.w3.org/2000/svg" xmlns:xlink="http://www.w3.org/1999/xlink">
    <defs>
        <symbol id="icon-facebook" viewBox="0 0 32 32">
            <title>facebook</title>
            <path d="M23.378 0.015v5.072s-3.739-0.369-4.677 1.060c-0.512 0.783-0.208 3.077-0.254 4.724h4.959c-0.42 1.925-0.72 3.23-1.028 4.896h-3.956v15.754h-6.87c0-4.858 0-10.526 0-15.697h-2.923v-4.958h2.891c0.148-3.626 0.204-7.217 2.005-9.046 2.023-2.050 3.958-1.804 9.852-1.804z"/>
        </symbol>
        <symbol id="icon-instagram" viewBox="0 0 32 32">
            <title>instagram</title>
            <path d="M27.956 31.984h-23.977c-2.207 0-3.996-1.789-3.996-3.996v0-23.977c0-2.207 1.789-3.996 3.996-3.996v0h23.977c2.207 0 3.996 1.789 3.996 3.996v0 23.977c0 2.207-1.789 3.996-3.996 3.996v0zM15.968 9.804c-2.477 0-4.615 1.456-5.604 3.559l-0.016 0.038c-0.010 0.022-0.017 0.046-0.027 0.069-0.059 0.125-0.11 0.266-0.16 0.401-0.024 0.066-0.050 0.125-0.071 0.195-0.046 0.14-0.084 0.281-0.119 0.425-0.017 0.066-0.037 0.132-0.052 0.2-0.032 0.151-0.055 0.305-0.076 0.46-0.009 0.062-0.021 0.125-0.029 0.187-0.022 0.198-0.036 0.429-0.036 0.662v0.001c0 3.421 2.773 6.194 6.194 6.194s6.194-2.773 6.194-6.194v0c-0.001-0.234-0.014-0.465-0.039-0.692l0.003 0.029c-0.008-0.064-0.020-0.125-0.029-0.187-0.021-0.155-0.044-0.308-0.076-0.46-0.015-0.067-0.035-0.134-0.052-0.2-0.035-0.144-0.072-0.285-0.119-0.425-0.021-0.065-0.047-0.125-0.071-0.195-0.050-0.135-0.101-0.27-0.16-0.401-0.010-0.022-0.017-0.046-0.027-0.069v0c-1.005-2.141-3.143-3.597-5.621-3.597-0.002 0-0.005 0-0.007 0h0zM28.356 5.209c0-0.882-0.715-1.597-1.597-1.597-0 0-0.001 0-0.001 0h-3.197c-0 0-0.001 0-0.001 0-0.882 0-1.597 0.715-1.597 1.597v0 3.198c0 0.883 0.716 1.598 1.598 1.598h3.197c0.883 0 1.598-0.716 1.598-1.598v0-3.198zM28.356 13.401h-2.947c0.222 0.777 0.35 1.67 0.35 2.593 0 5.407-4.383 9.79-9.79 9.79s-9.79-4.383-9.79-9.79c0-0.923 0.128-1.816 0.366-2.662l-0.017 0.069h-2.947v13.387c0 0 0 0.001 0 0.001 0 0.883 0.716 1.598 1.598 1.598h21.579c0.883 0 1.598-0.716 1.598-1.598 0-0 0-0.001 0-0.001v0-13.387z"/>
        </symbol>
        <symbol id="icon-pinterest" viewBox="0 0 32 32">
            <title>pinterest</title>
            <path d="M13.717 20.474c-0.257 1.025-0.517 2.1-0.785 3.151-0.267 1.203-0.571 2.22-0.938 3.206l0.054-0.166c-0.642 1.661-1.491 3.094-2.536 4.36l0.021-0.026c-0.708 0.821-0.558 0.492-0.77 0.449-0.162-0.034-0.176-0.193-0.208-0.425-0.054-0.601-0.085-1.299-0.085-2.005 0-0.741 0.034-1.474 0.1-2.197l-0.007 0.093c0.113-1.57 0.371-3.027 0.762-4.428l-0.037 0.156c0.596-2.54 1.164-5.030 1.766-7.586 0.063-0.162 0.104-0.349 0.111-0.545l0-0.003c-0.255-0.61-0.441-1.318-0.525-2.056l-0.003-0.036c-0.025-0.218-0.040-0.471-0.040-0.728 0-0.591 0.077-1.164 0.221-1.71l-0.010 0.046c0.262-1.305 1.137-2.36 2.306-2.868l0.026-0.010c0.262-0.094 0.565-0.149 0.881-0.149 0.459 0 0.891 0.115 1.269 0.318l-0.014-0.007c0.545 0.337 0.936 0.881 1.065 1.519l0.003 0.015c0.051 0.281 0.080 0.605 0.080 0.936 0 0.494-0.065 0.974-0.187 1.43l0.009-0.038c-0.329 1.5-0.761 2.626-1.153 4.074-0.179 0.465-0.282 1.003-0.282 1.565 0 0.235 0.018 0.466 0.053 0.691l-0.003-0.025c0.146 0.652 0.521 1.199 1.034 1.564l0.008 0.005c0.491 0.356 1.106 0.569 1.77 0.569 0.081 0 0.161-0.003 0.24-0.009l-0.011 0.001c1.364-0.12 2.536-0.851 3.253-1.914l0.010-0.016c1.153-1.614 1.901-3.59 2.059-5.73l0.002-0.038c0.067-0.521 0.106-1.123 0.106-1.734 0-0.262-0.007-0.522-0.021-0.781l0.002 0.036c-0.060-1.456-0.572-2.782-1.399-3.852l0.012 0.016c-0.791-0.971-1.841-1.703-3.046-2.093l-0.046-0.013c-0.876-0.27-1.883-0.426-2.927-0.426-0.595 0-1.179 0.051-1.746 0.148l0.061-0.009c-2.652 0.411-4.851 2.048-6.028 4.303l-0.021 0.045c-0.649 1.19-1.031 2.606-1.031 4.111 0 0.030 0 0.060 0 0.090l-0-0.005c-0.002 0.052-0.003 0.114-0.003 0.176 0 1.076 0.312 2.079 0.85 2.923l-0.013-0.022c0.164 0.246 0.404 0.452 0.564 0.738 0.040 0.154 0.063 0.331 0.063 0.513 0 0.334-0.077 0.651-0.215 0.932l0.006-0.013c-0.135 0.523-0.15 1.246-0.761 1.258-0.297-0.041-0.563-0.147-0.792-0.303l0.006 0.004c-1.609-0.988-2.728-2.64-2.978-4.564l-0.003-0.032c-0.116-0.599-0.182-1.288-0.182-1.993s0.066-1.393 0.193-2.061l-0.011 0.068c0.671-3.248 2.656-5.936 5.362-7.533l0.053-0.029c1.383-0.826 3.007-1.41 4.741-1.649l0.067-0.008c0.625-0.091 1.273-0.129 1.975-0.162 0.159-0.008 0.346-0.012 0.534-0.012 1.734 0 3.381 0.371 4.865 1.039l-0.075-0.030c1.44 0.644 2.661 1.536 3.66 2.633l0.008 0.009c1.030 1.121 1.809 2.488 2.24 4.002l0.017 0.070c0.287 0.836 0.465 1.8 0.492 2.801l0 0.013c-0.045 1.059-0.181 2.059-0.401 3.027l0.021-0.113c-0.414 3.292-2.168 6.107-4.69 7.925l-0.034 0.023c-0.621 0.411-1.337 0.75-2.101 0.981l-0.058 0.015c-0.703 0.228-1.512 0.359-2.352 0.359-0.144 0-0.286-0.004-0.428-0.011l0.020 0.001c-0.904-0.052-1.737-0.309-2.469-0.725l0.028 0.015c-0.682-0.357-1.235-0.881-1.617-1.518l-0.010-0.018z"/>
        </symbol>
        <symbol id="icon-twitter" viewBox="0 0 32 32">
            <title>twitter</title>
            <path d="M21.439 3.084c0.096-0.005 0.209-0.008 0.323-0.008 1.879 0 3.576 0.78 4.784 2.033l0.002 0.002c1.241-0.2 2.354-0.591 3.367-1.144l-0.055 0.027 0.804-0.439c-0.408 1.227-1.133 2.258-2.080 3.026l-0.012 0.009c-0.205 0.194-0.439 0.361-0.693 0.494l-0.017 0.008v0.016c1.354-0.147 2.592-0.495 3.735-1.016l-0.076 0.031v0.016c-0.61 0.971-1.337 1.801-2.175 2.502l-0.017 0.013-1.009 0.801c0.010 0.224 0.015 0.487 0.015 0.751 0 1.203-0.114 2.378-0.333 3.517l0.019-0.116c-1.615 7.255-5.893 12.185-12.663 14.292-1.602 0.478-3.443 0.753-5.348 0.753-1.344 0-2.657-0.137-3.924-0.398l0.125 0.021c-1.47-0.349-2.738-0.775-3.952-1.3l0.152 0.059c-0.719-0.312-1.32-0.628-1.895-0.981l0.065 0.037-0.567-0.345c0.428 0.062 0.923 0.097 1.425 0.097 0.225 0 0.449-0.007 0.67-0.021l-0.030 0.002c0.636-0.102 1.259-0.075 1.846-0.203 1.46-0.286 2.759-0.772 3.945-1.435l-0.067 0.034c0.67-0.315 1.247-0.698 1.759-1.153l-0.007 0.006c-0 0-0 0-0.001 0-0.691 0-1.352-0.127-1.961-0.358l0.038 0.013c-1.946-0.669-3.448-2.182-4.088-4.090l-0.013-0.046c0.354 0.069 0.761 0.109 1.177 0.109 0.608 0 1.197-0.085 1.754-0.243l-0.045 0.011c-0.803-0.115-1.52-0.416-2.127-0.859l0.014 0.009c-1.837-1.103-3.047-3.084-3.047-5.348 0-0.067 0.001-0.133 0.003-0.2l-0 0.010 0.662 0.314c0.385 0.155 0.84 0.286 1.31 0.371l0.043 0.007c0.181 0.062 0.389 0.098 0.606 0.098 0.098 0 0.194-0.007 0.288-0.021l-0.011 0.001h-0.032c-0.325-0.378-0.862-0.63-1.183-1.038-1.012-1.154-1.629-2.676-1.629-4.343 0-0.54 0.065-1.064 0.187-1.566l-0.009 0.045c0.18-0.641 0.416-1.2 0.713-1.719l-0.019 0.037 0.032 0.015c0.175 0.254 0.367 0.476 0.581 0.675l0.003 0.002c0.574 0.685 1.205 1.289 1.895 1.818l0.028 0.021c2.201 1.801 4.86 3.13 7.773 3.791l0.127 0.024c0.868 0.23 1.867 0.367 2.896 0.378l0.007 0c-0.114-0.438-0.179-0.94-0.179-1.458 0-0.561 0.077-1.103 0.22-1.618l-0.010 0.042c0.49-1.963 1.841-3.538 3.618-4.324l0.041-0.016c0.406-0.175 0.886-0.326 1.384-0.432l0.051-0.009z"/>
        </symbol>
    </defs>
</svg>
